<?xml version="1.0" encoding="utf-8"?>
<!-- Generator: Adobe Illustrator 19.2.1, SVG Export Plug-In . SVG Version: 6.00 Build 0)  -->
<!DOCTYPE svg PUBLIC "-//W3C//DTD SVG 1.1//EN" "http://www.w3.org/Graphics/SVG/1.1/DTD/svg11.dtd">
<svg version="1.1" id="Layer_1" xmlns="http://www.w3.org/2000/svg" xmlns:xlink="http://www.w3.org/1999/xlink" x="0px" y="0px"
	 viewBox="0 0 75 33.4" style="enable-background:new 0 0 75 33.4;" xml:space="preserve">
<style type="text/css">
	.st0{fill:#FFFFFF;}
</style>
<g>
	<path class="st0" d="M4.9,6c1.4,0,3,0.7,3,2.5c0,1.9-1.6,2.6-3,2.6H3.8v3.2H2.3V6H4.9z M3.8,9.8h0.8c1,0,1.8-0.3,1.8-1.3
		c0-0.8-0.6-1.3-1.5-1.3H3.8V9.8z"/>
	<path class="st0" d="M9.2,14.3V6h5.2v1.3h-3.7v2.2h3.7v1.3h-3.7V13h3.7v1.3H9.2z"/>
	<path class="st0" d="M16.2,14.3V6h5.2v1.3h-3.7v2.2h3.7v1.3h-3.7V13h3.7v1.3H16.2z"/>
	<path class="st0" d="M23.1,14.3V6h1.5V13H28v1.3H23.1z"/>
	<path class="st0" d="M34.9,7.1c-0.7,0-1.2,0.3-1.2,1c0,0.7,0.8,0.9,1.5,1.1c1.2,0.4,2.6,1,2.6,2.6c0,1.8-1.7,2.6-3,2.6
		c-1.3,0-2.2-0.4-3.1-1.3l1-1c0.7,0.7,1.3,1,2.1,1c0.7,0,1.5-0.4,1.5-1.2c0-0.8-0.8-1.1-1.7-1.4c-1.1-0.4-2.3-1-2.3-2.4
		c0-1.6,1.3-2.3,2.6-2.3c1,0,1.9,0.3,2.7,0.9l-0.9,1.1C36.2,7.4,35.5,7.1,34.9,7.1z"/>
	<path class="st0" d="M41.8,6h1.2l3.2,8.3h-1.7l-0.6-1.6h-3.2l-0.6,1.6h-1.6L41.8,6z M41.2,11.4h2.3l-1.1-3.2h0L41.2,11.4z"/>
	<path class="st0" d="M48.9,10.9v3.5h-1.5V6h4.5v1.3h-3v2.4h3v1.3H48.9z"/>
	<path class="st0" d="M53.4,14.3V6h5.2v1.3h-3.7v2.2h3.7v1.3h-3.7V13h3.7v1.3H53.4z"/>
	<path class="st0" d="M63,7.2v7.1h-1.5V7.2h-2V6H65v1.3H63z"/>
	<path class="st0" d="M68.5,14.3v-3.5L65.8,6h1.8l1.6,3.2h0L71,6h1.7l-2.7,4.8v3.5H68.5z"/>
</g>
<g>
	<path class="st0" d="M2.7,27.5v-8.3h1.5v8.3H2.7z"/>
	<path class="st0" d="M13.6,27.5l-4.1-5.6v5.6H8v-8.3h1.3l4.1,5.6v-5.6h1.5v8.3H13.6z"/>
	<path class="st0" d="M21.5,20.3c-0.7,0-1.2,0.3-1.2,1c0,0.7,0.8,0.9,1.5,1.1c1.2,0.4,2.6,1,2.6,2.6c0,1.8-1.7,2.6-3,2.6
		c-1.3,0-2.2-0.4-3.1-1.3l1-1c0.7,0.7,1.3,1,2.1,1c0.7,0,1.5-0.4,1.5-1.2c0-0.8-0.8-1.1-1.7-1.4c-1.1-0.4-2.3-1-2.3-2.4
		c0-1.6,1.3-2.3,2.6-2.3c1,0,1.9,0.3,2.7,0.9L23.3,21C22.9,20.6,22.2,20.3,21.5,20.3z"/>
	<path class="st0" d="M30.5,20.4v7.1H29v-7.1h-2v-1.3h5.5v1.3H30.5z"/>
	<path class="st0" d="M35.5,27.5v-8.3H37v8.3H35.5z"/>
	<path class="st0" d="M43.4,20.4v7.1h-1.5v-7.1h-2v-1.3h5.5v1.3H43.4z"/>
	<path class="st0" d="M55,23.6c0,2.6-1,4.1-3.3,4.1c-2.3,0-3.3-1.4-3.3-4.1v-4.4h1.5v4.7c0,1.7,0.7,2.5,1.8,2.5
		c1.1,0,1.8-0.8,1.8-2.5v-4.7H55V23.6z"/>
	<path class="st0" d="M61.4,20.4v7.1H60v-7.1h-2v-1.3h5.5v1.3H61.4z"/>
	<path class="st0" d="M66.5,27.5v-8.3h5.2v1.3h-3.7v2.2h3.7v1.3h-3.7v2.4h3.7v1.3H66.5z"/>
</g>
<rect x="36.9" y="-36.9" transform="matrix(3.409431e-010 1 -1 3.409431e-010 38.1456 -36.8544)" class="st0" width="1.3" height="75"/>
<rect x="36.9" y="-4.7" transform="matrix(3.409431e-010 1 -1 3.409431e-010 70.2993 -4.7007)" class="st0" width="1.3" height="75"/>
</svg>
